solid Exported from Blender-2.75 (sub 0)
facet normal 0.102381 -0.315090 -0.943523
outer loop
vertex 0.000000 0.000000 -3.564527
vertex 1.516074 -1.101480 -3.032180
vertex -0.579077 -1.782247 -3.032181
endloop
endfacet
facet normal 0.700224 -0.268032 -0.661699
outer loop
vertex 2.579318 -1.873962 -1.594126
vertex 1.516074 -1.101480 -3.032180
vertex 3.032157 0.000000 -1.874000
endloop
endfacet
facet normal -0.268034 -0.194737 -0.943523
outer loop
vertex 0.000000 0.000000 -3.564527
vertex -0.579077 -1.782247 -3.032181
vertex -1.873978 0.000000 -3.032171
endloop
endfacet
facet normal -0.268034 0.194737 -0.943523
outer loop
vertex 0.000000 0.000000 -3.564527
vertex -1.873978 0.000000 -3.032171
vertex -0.579077 1.782247 -3.032181
endloop
endfacet
facet normal 0.102381 0.315090 -0.943523
outer loop
vertex 0.000000 0.000000 -3.564527
vertex -0.579077 1.782247 -3.032181
vertex 1.516074 1.101480 -3.032180
endloop
endfacet
facet normal 0.904989 -0.268031 -0.330385
outer loop
vertex 2.579318 -1.873962 -1.594126
vertex 3.032157 0.000000 -1.874000
vertex 3.390072 -1.101484 0.000000
endloop
endfacet
facet normal 0.024747 -0.943521 -0.330386
outer loop
vertex -0.985193 -3.032162 -1.594127
vertex 0.937003 -2.883744 -1.874006
vertex 0.000000 -3.564527 0.000000
endloop
endfacet
facet normal -0.889697 -0.315095 -0.330385
outer loop
vertex -3.188207 0.000000 -1.594112
vertex -2.453070 -1.782253 -1.874001
vertex -3.390072 -1.101484 0.000000
endloop
endfacet
facet normal -0.574602 0.748784 -0.330388
outer loop
vertex -0.985193 3.032162 -1.594127
vertex -2.453070 1.782253 -1.874001
vertex -2.095178 2.883762 0.000000
endloop
endfacet
facet normal 0.534576 0.777864 -0.330387
outer loop
vertex 2.579318 1.873962 -1.594126
vertex 0.937003 2.883744 -1.874006
vertex 2.095178 2.883762 0.000000
endloop
endfacet
facet normal 0.802609 -0.583127 -0.125627
outer loop
vertex 2.579318 -1.873962 -1.594126
vertex 3.390072 -1.101484 0.000000
vertex 2.095178 -2.883762 0.000000
endloop
endfacet
facet normal -0.306569 -0.943521 -0.125629
outer loop
vertex -0.985193 -3.032162 -1.594127
vertex 0.000000 -3.564527 0.000000
vertex -2.095178 -2.883762 0.000000
endloop
endfacet
facet normal -0.992077 0.000000 -0.125628
outer loop
vertex -3.188207 0.000000 -1.594112
vertex -3.390072 -1.101484 0.000000
vertex -3.390072 1.101484 0.000000
endloop
endfacet
facet normal -0.306569 0.943521 -0.125629
outer loop
vertex -0.985193 3.032162 -1.594127
vertex -2.095178 2.883762 0.000000
vertex 0.000000 3.564527 0.000000
endloop
endfacet
facet normal 0.802609 0.583127 -0.125627
outer loop
vertex 2.579318 1.873962 -1.594126
vertex 2.095178 2.883762 0.000000
vertex 3.390072 1.101484 0.000000
endloop
endfacet
facet normal 0.408946 -0.628425 0.661698
outer loop
vertex 0.985193 -3.032162 1.594127
vertex 2.453070 -1.782253 1.874001
vertex 0.579077 -1.782247 3.032181
endloop
endfacet
facet normal -0.471300 -0.583122 0.661699
outer loop
vertex -2.579318 -1.873962 1.594126
vertex -0.937003 -2.883744 1.874006
vertex -1.516074 -1.101480 3.032180
endloop
endfacet
facet normal -0.700224 0.268032 0.661699
outer loop
vertex -2.579318 1.873962 1.594126
vertex -3.032157 0.000000 1.874000
vertex -1.516074 1.101480 3.032180
endloop
endfacet
facet normal 0.038530 0.748779 0.661699
outer loop
vertex 0.985193 3.032162 1.594127
vertex -0.937003 2.883744 1.874006
vertex 0.579077 1.782247 3.032181
endloop
endfacet
facet normal 0.724042 0.194736 0.661696
outer loop
vertex 3.188207 0.000000 1.594112
vertex 2.453070 1.782253 1.874001
vertex 1.873978 0.000000 3.032171
endloop
endfacet
facet normal 0.268034 0.194737 0.943523
outer loop
vertex 1.873978 0.000000 3.032171
vertex 0.579077 1.782247 3.032181
vertex 0.000000 0.000000 3.564527
endloop
endfacet
facet normal 0.491120 0.356821 0.794657
outer loop
vertex 1.873978 0.000000 3.032171
vertex 2.453070 1.782253 1.874001
vertex 0.579077 1.782247 3.032181
endloop
endfacet
facet normal 0.408946 0.628425 0.661699
outer loop
vertex 2.453070 1.782253 1.874001
vertex 0.985193 3.032162 1.594127
vertex 0.579077 1.782247 3.032181
endloop
endfacet
facet normal -0.102381 0.315090 0.943523
outer loop
vertex 0.579077 1.782247 3.032181
vertex -1.516074 1.101480 3.032180
vertex 0.000000 0.000000 3.564527
endloop
endfacet
facet normal -0.187594 0.577345 0.794658
outer loop
vertex 0.579077 1.782247 3.032181
vertex -0.937003 2.883744 1.874006
vertex -1.516074 1.101480 3.032180
endloop
endfacet
facet normal -0.471300 0.583122 0.661699
outer loop
vertex -0.937003 2.883744 1.874006
vertex -2.579318 1.873962 1.594126
vertex -1.516074 1.101480 3.032180
endloop
endfacet
facet normal -0.331305 0.000000 0.943524
outer loop
vertex -1.516074 1.101480 3.032180
vertex -1.516074 -1.101480 3.032180
vertex 0.000000 0.000000 3.564527
endloop
endfacet
facet normal -0.607061 0.000000 0.794656
outer loop
vertex -1.516074 1.101480 3.032180
vertex -3.032157 0.000000 1.874000
vertex -1.516074 -1.101480 3.032180
endloop
endfacet
facet normal -0.700224 -0.268032 0.661699
outer loop
vertex -3.032157 0.000000 1.874000
vertex -2.579318 -1.873962 1.594126
vertex -1.516074 -1.101480 3.032180
endloop
endfacet
facet normal -0.102381 -0.315090 0.943523
outer loop
vertex -1.516074 -1.101480 3.032180
vertex 0.579077 -1.782247 3.032181
vertex 0.000000 0.000000 3.564527
endloop
endfacet
facet normal -0.187594 -0.577345 0.794658
outer loop
vertex -1.516074 -1.101480 3.032180
vertex -0.937003 -2.883744 1.874006
vertex 0.579077 -1.782247 3.032181
endloop
endfacet
facet normal 0.038530 -0.748779 0.661699
outer loop
vertex -0.937003 -2.883744 1.874006
vertex 0.985193 -3.032162 1.594127
vertex 0.579077 -1.782247 3.032181
endloop
endfacet
facet normal 0.268034 -0.194737 0.943523
outer loop
vertex 0.579077 -1.782247 3.032181
vertex 1.873978 0.000000 3.032171
vertex 0.000000 0.000000 3.564527
endloop
endfacet
facet normal 0.491120 -0.356821 0.794657
outer loop
vertex 0.579077 -1.782247 3.032181
vertex 2.453070 -1.782253 1.874001
vertex 1.873978 0.000000 3.032171
endloop
endfacet
facet normal 0.724042 -0.194736 0.661696
outer loop
vertex 2.453070 -1.782253 1.874001
vertex 3.188207 0.000000 1.594112
vertex 1.873978 0.000000 3.032171
endloop
endfacet
facet normal 0.889697 0.315095 0.330385
outer loop
vertex 3.390072 1.101484 0.000000
vertex 2.453070 1.782253 1.874001
vertex 3.188207 0.000000 1.594112
endloop
endfacet
facet normal 0.794656 0.577348 0.187595
outer loop
vertex 3.390072 1.101484 0.000000
vertex 2.095178 2.883762 0.000000
vertex 2.453070 1.782253 1.874001
endloop
endfacet
facet normal 0.574602 0.748784 0.330388
outer loop
vertex 2.095178 2.883762 0.000000
vertex 0.985193 3.032162 1.594127
vertex 2.453070 1.782253 1.874001
endloop
endfacet
facet normal -0.024747 0.943521 0.330386
outer loop
vertex 0.000000 3.564527 0.000000
vertex -0.937003 2.883744 1.874006
vertex 0.985193 3.032162 1.594127
endloop
endfacet
facet normal -0.303531 0.934171 0.187597
outer loop
vertex 0.000000 3.564527 0.000000
vertex -2.095178 2.883762 0.000000
vertex -0.937003 2.883744 1.874006
endloop
endfacet
facet normal -0.534576 0.777865 0.330387
outer loop
vertex -2.095178 2.883762 0.000000
vertex -2.579318 1.873962 1.594126
vertex -0.937003 2.883744 1.874006
endloop
endfacet
facet normal -0.904989 0.268031 0.330385
outer loop
vertex -3.390072 1.101484 0.000000
vertex -3.032157 0.000000 1.874000
vertex -2.579318 1.873962 1.594126
endloop
endfacet
facet normal -0.982246 0.000000 0.187599
outer loop
vertex -3.390072 1.101484 0.000000
vertex -3.390072 -1.101484 0.000000
vertex -3.032157 0.000000 1.874000
endloop
endfacet
facet normal -0.904989 -0.268031 0.330385
outer loop
vertex -3.390072 -1.101484 0.000000
vertex -2.579318 -1.873962 1.594126
vertex -3.032157 0.000000 1.874000
endloop
endfacet
facet normal -0.534576 -0.777865 0.330387
outer loop
vertex -2.095178 -2.883762 0.000000
vertex -0.937003 -2.883744 1.874006
vertex -2.579318 -1.873962 1.594126
endloop
endfacet
facet normal -0.303531 -0.934171 0.187597
outer loop
vertex -2.095178 -2.883762 0.000000
vertex 0.000000 -3.564527 0.000000
vertex -0.937003 -2.883744 1.874006
endloop
endfacet
facet normal -0.024747 -0.943521 0.330386
outer loop
vertex 0.000000 -3.564527 0.000000
vertex 0.985193 -3.032162 1.594127
vertex -0.937003 -2.883744 1.874006
endloop
endfacet
facet normal 0.574602 -0.748784 0.330388
outer loop
vertex 2.095178 -2.883762 0.000000
vertex 2.453070 -1.782253 1.874001
vertex 0.985193 -3.032162 1.594127
endloop
endfacet
facet normal 0.794656 -0.577348 0.187595
outer loop
vertex 2.095178 -2.883762 0.000000
vertex 3.390072 -1.101484 0.000000
vertex 2.453070 -1.782253 1.874001
endloop
endfacet
facet normal 0.889697 -0.315095 0.330385
outer loop
vertex 3.390072 -1.101484 0.000000
vertex 3.188207 0.000000 1.594112
vertex 2.453070 -1.782253 1.874001
endloop
endfacet
facet normal 0.306569 0.943521 0.125629
outer loop
vertex 2.095178 2.883762 0.000000
vertex 0.000000 3.564527 0.000000
vertex 0.985193 3.032162 1.594127
endloop
endfacet
facet normal 0.303531 0.934171 -0.187597
outer loop
vertex 2.095178 2.883762 0.000000
vertex 0.937003 2.883744 -1.874006
vertex 0.000000 3.564527 0.000000
endloop
endfacet
facet normal 0.024747 0.943521 -0.330386
outer loop
vertex 0.937003 2.883744 -1.874006
vertex -0.985193 3.032162 -1.594127
vertex 0.000000 3.564527 0.000000
endloop
endfacet
facet normal -0.802609 0.583127 0.125627
outer loop
vertex -2.095178 2.883762 0.000000
vertex -3.390072 1.101484 0.000000
vertex -2.579318 1.873962 1.594126
endloop
endfacet
facet normal -0.794656 0.577348 -0.187595
outer loop
vertex -2.095178 2.883762 0.000000
vertex -2.453070 1.782253 -1.874001
vertex -3.390072 1.101484 0.000000
endloop
endfacet
facet normal -0.889697 0.315095 -0.330385
outer loop
vertex -2.453070 1.782253 -1.874001
vertex -3.188207 0.000000 -1.594112
vertex -3.390072 1.101484 0.000000
endloop
endfacet
facet normal -0.802609 -0.583127 0.125627
outer loop
vertex -3.390072 -1.101484 0.000000
vertex -2.095178 -2.883762 0.000000
vertex -2.579318 -1.873962 1.594126
endloop
endfacet
facet normal -0.794656 -0.577348 -0.187595
outer loop
vertex -3.390072 -1.101484 0.000000
vertex -2.453070 -1.782253 -1.874001
vertex -2.095178 -2.883762 0.000000
endloop
endfacet
facet normal -0.574602 -0.748784 -0.330388
outer loop
vertex -2.453070 -1.782253 -1.874001
vertex -0.985193 -3.032162 -1.594127
vertex -2.095178 -2.883762 0.000000
endloop
endfacet
facet normal 0.306569 -0.943521 0.125629
outer loop
vertex 0.000000 -3.564527 0.000000
vertex 2.095178 -2.883762 0.000000
vertex 0.985193 -3.032162 1.594127
endloop
endfacet
facet normal 0.303531 -0.934171 -0.187597
outer loop
vertex 0.000000 -3.564527 0.000000
vertex 0.937003 -2.883744 -1.874006
vertex 2.095178 -2.883762 0.000000
endloop
endfacet
facet normal 0.534576 -0.777864 -0.330387
outer loop
vertex 0.937003 -2.883744 -1.874006
vertex 2.579318 -1.873962 -1.594126
vertex 2.095178 -2.883762 0.000000
endloop
endfacet
facet normal 0.992077 0.000000 0.125628
outer loop
vertex 3.390072 -1.101484 0.000000
vertex 3.390072 1.101484 0.000000
vertex 3.188207 0.000000 1.594112
endloop
endfacet
facet normal 0.982246 0.000000 -0.187599
outer loop
vertex 3.390072 -1.101484 0.000000
vertex 3.032157 0.000000 -1.874000
vertex 3.390072 1.101484 0.000000
endloop
endfacet
facet normal 0.904989 0.268031 -0.330385
outer loop
vertex 3.032157 0.000000 -1.874000
vertex 2.579318 1.873962 -1.594126
vertex 3.390072 1.101484 0.000000
endloop
endfacet
facet normal 0.471300 0.583122 -0.661699
outer loop
vertex 1.516074 1.101480 -3.032180
vertex 0.937003 2.883744 -1.874006
vertex 2.579318 1.873962 -1.594126
endloop
endfacet
facet normal 0.187594 0.577345 -0.794658
outer loop
vertex 1.516074 1.101480 -3.032180
vertex -0.579077 1.782247 -3.032181
vertex 0.937003 2.883744 -1.874006
endloop
endfacet
facet normal -0.038531 0.748779 -0.661699
outer loop
vertex -0.579077 1.782247 -3.032181
vertex -0.985193 3.032162 -1.594127
vertex 0.937003 2.883744 -1.874006
endloop
endfacet
facet normal -0.408946 0.628425 -0.661699
outer loop
vertex -0.579077 1.782247 -3.032181
vertex -2.453070 1.782253 -1.874001
vertex -0.985193 3.032162 -1.594127
endloop
endfacet
facet normal -0.491120 0.356821 -0.794657
outer loop
vertex -0.579077 1.782247 -3.032181
vertex -1.873978 0.000000 -3.032171
vertex -2.453070 1.782253 -1.874001
endloop
endfacet
facet normal -0.724042 0.194736 -0.661696
outer loop
vertex -1.873978 0.000000 -3.032171
vertex -3.188207 0.000000 -1.594112
vertex -2.453070 1.782253 -1.874001
endloop
endfacet
facet normal -0.724042 -0.194736 -0.661696
outer loop
vertex -1.873978 0.000000 -3.032171
vertex -2.453070 -1.782253 -1.874001
vertex -3.188207 0.000000 -1.594112
endloop
endfacet
facet normal -0.491120 -0.356821 -0.794657
outer loop
vertex -1.873978 0.000000 -3.032171
vertex -0.579077 -1.782247 -3.032181
vertex -2.453070 -1.782253 -1.874001
endloop
endfacet
facet normal -0.408946 -0.628425 -0.661699
outer loop
vertex -0.579077 -1.782247 -3.032181
vertex -0.985193 -3.032162 -1.594127
vertex -2.453070 -1.782253 -1.874001
endloop
endfacet
facet normal 0.700224 0.268032 -0.661699
outer loop
vertex 3.032157 0.000000 -1.874000
vertex 1.516074 1.101480 -3.032180
vertex 2.579318 1.873962 -1.594126
endloop
endfacet
facet normal 0.607061 0.000000 -0.794656
outer loop
vertex 3.032157 0.000000 -1.874000
vertex 1.516074 -1.101480 -3.032180
vertex 1.516074 1.101480 -3.032180
endloop
endfacet
facet normal 0.331305 0.000000 -0.943524
outer loop
vertex 1.516074 -1.101480 -3.032180
vertex 0.000000 0.000000 -3.564527
vertex 1.516074 1.101480 -3.032180
endloop
endfacet
facet normal -0.038531 -0.748779 -0.661699
outer loop
vertex -0.579077 -1.782247 -3.032181
vertex 0.937003 -2.883744 -1.874006
vertex -0.985193 -3.032162 -1.594127
endloop
endfacet
facet normal 0.187594 -0.577345 -0.794658
outer loop
vertex -0.579077 -1.782247 -3.032181
vertex 1.516074 -1.101480 -3.032180
vertex 0.937003 -2.883744 -1.874006
endloop
endfacet
facet normal 0.471300 -0.583122 -0.661699
outer loop
vertex 1.516074 -1.101480 -3.032180
vertex 2.579318 -1.873962 -1.594126
vertex 0.937003 -2.883744 -1.874006
endloop
endfacet
endsolid Exported from Blender-2.75 (sub 0)
